PathFileType	4	(X/Y/Z)	 s03c0202.trc
DataRate	CameraRate	NumFrames	NumMarkers	Units	OrigDataRate	OrigDataStartFrame	OrigNumFrames
200	200	4	52	mm	200	1501	2000
Frame#	Time	racr			lacr			c7			jug			rlel			rdr			llel			ldr			s2			lic			ric			lasi			rasi			rpsi			lpsi			rgt			lgt			rth1			rth2			rth3			rth4			rlfc			rmfc			rsh1			rsh2			rsh3			rsh4			rlmal			rmmal			rcal			rtoe			rmt5			rmt1			lth1			lth2			lth4			lth3			llfc			lmfc			lsh1			lsh2			lsh3			lsh4			llmal			lmmal			lcal			ltoe			lmt1			lmt5			SBIKE			LBIKE			RBIKE			
		X1	Y1	Z1	X2	Y2	Z2	X3	Y3	Z3	X4	Y4	Z4	X5	Y5	Z5	X6	Y6	Z6	X7	Y7	Z7	X8	Y8	Z8	X9	Y9	Z9	X10	Y10	Z10	X11	Y11	Z11	X12	Y12	Z12	X13	Y13	Z13	X14	Y14	Z14	X15	Y15	Z15	X16	Y16	Z16	X17	Y17	Z17	X18	Y18	Z18	X19	Y19	Z19	X20	Y20	Z20	X21	Y21	Z21	X22	Y22	Z22	X23	Y23	Z23	X24	Y24	Z24	X25	Y25	Z25	X26	Y26	Z26	X27	Y27	Z27	X28	Y28	Z28	X29	Y29	Z29	X30	Y30	Z30	X31	Y31	Z31	X32	Y32	Z32	X33	Y33	Z33	X34	Y34	Z34	X35	Y35	Z35	X36	Y36	Z36	X37	Y37	Z37	X38	Y38	Z38	X39	Y39	Z39	X40	Y40	Z40	X41	Y41	Z41	X42	Y42	Z42	X43	Y43	Z43	X44	Y44	Z44	X45	Y45	Z45	X46	Y46	Z46	X47	Y47	Z47	X48	Y48	Z48	X49	Y49	Z49	X50	Y50	Z50	X51	Y51	Z51	X52	Y52	Z52	
1501	7.5050	467.642253	1441.127697	-82.274344	446.245624	1457.374010	-404.459701	378.623732	1529.346656	-235.974708	421.458382	1362.637463	-242.159372	521.914946	1191.349927	47.932373	722.118976	986.702263	-18.174921	510.610110	1199.054633	-498.815645	718.998422	979.812455	-454.458666	-114.551690	1199.731417	-234.370228	58.164034	1234.659382	-416.710155	53.491129	1237.532616	-52.172125	82.140446	1161.680287	-378.677978	78.935960	1177.120706	-98.393727	-92.209596	1252.961184	-191.471492	-84.989315	1250.806475	-274.452612	10.640249	1155.296190	-38.477462	4.169510	1105.986415	-432.139054	142.762565	1076.556341	-20.323945	231.756827	1075.866331	-19.359971	307.448349	1034.388247	-21.223898	241.414401	1109.323384	-33.875297	422.602706	970.950005	-42.035313	429.972811	956.952961	-168.391012	348.756218	823.297247	-27.271731	328.140958	739.674906	-44.071616	262.762297	677.337238	-51.036371	353.285434	727.682823	-70.308924	194.943660	564.995404	-73.681338	222.980152	574.859396	-162.648048	126.088995	519.919801	-116.774675	436.810176	507.772240	-107.979233	315.271900	495.480836	-41.868384	343.997898	509.076905	-155.142092	74.161024	960.734909	-451.282549	131.207004	895.589538	-455.000393	164.167365	912.152691	-453.035186	150.086148	809.142327	-441.593548	223.854092	700.987730	-424.685733	228.858645	690.517769	-303.442957	147.305030	543.887850	-447.513487	140.985897	461.230208	-430.340759	89.417331	386.028360	-421.790841	170.387075	452.696499	-404.932463	39.091081	269.680883	-401.761233	75.057045	279.284470	-312.413548	-28.669391	225.682443	-353.021485	279.442459	194.310310	-357.090100	187.584104	199.761918	-314.434124	157.746574	179.637320	-428.373602	-214.950355	945.626016	-231.175515	-6.104952	83.892542	-435.104911	-11.533230	81.197776	-34.713822	
1502	7.5100	467.236896	1441.171066	-81.984491	445.932814	1457.190114	-404.303272	377.994630	1529.092835	-235.913737	421.193304	1362.273724	-241.925264	521.785121	1191.208793	47.774365	722.195442	986.713700	-18.324458	510.692253	1198.922570	-498.476344	719.467261	979.858176	-454.594325	-115.130276	1198.487463	-236.596932	58.511425	1233.679815	-416.644000	52.905578	1236.940322	-52.162578	82.364537	1160.687376	-378.502282	78.867371	1176.484807	-98.424623	-92.326107	1251.950546	-191.983274	-84.995451	1249.857091	-274.944316	10.299569	1154.912148	-38.602894	4.685067	1105.011913	-432.233512	142.551203	1076.728205	-20.096532	231.547021	1076.233234	-19.087714	307.364780	1035.016037	-20.721193	241.191093	1109.681231	-33.645264	423.039728	971.787558	-41.492848	430.792415	957.790662	-167.909757	349.397725	823.962785	-26.849626	328.842881	740.373724	-43.695365	263.771294	677.894031	-50.679435	354.007042	728.374496	-69.877900	195.662798	565.714466	-73.471781	223.759381	575.534608	-162.535421	126.617976	520.911703	-116.795555	437.252309	507.214759	-107.990057	315.870095	495.474087	-42.021028	344.392248	509.071882	-155.112337	74.574105	959.785977	-451.221458	131.587498	894.625591	-454.812632	164.550938	911.185179	-452.798654	150.421478	808.174910	-441.398887	224.227323	700.157892	-424.423274	228.659151	689.705564	-303.125032	147.234943	543.343995	-447.262974	140.759730	460.632191	-430.149190	89.105228	385.519391	-421.790809	170.147267	452.154265	-404.797525	38.588761	269.111925	-401.725648	74.320725	278.805686	-312.333159	-29.045547	224.743834	-352.960132	279.238850	194.751467	-357.010500	187.268984	199.808103	-314.459101	157.510355	179.565535	-428.371994	-214.969097	945.615283	-231.235352	-6.109269	83.875842	-435.111563	-11.526824	81.184141	-34.714394	
1503	7.5150	466.746264	1441.190852	-81.702228	445.587512	1456.985704	-404.127715	377.315126	1528.821230	-235.907947	420.910961	1361.875532	-241.646174	521.581502	1191.031057	47.616037	722.267731	986.711671	-18.381488	510.754490	1198.690986	-498.110926	719.902876	979.926025	-454.673318	-115.501529	1197.342461	-236.388177	58.854827	1232.770431	-416.631208	52.323564	1236.395412	-52.099621	82.549254	1159.841960	-378.357277	78.890939	1175.972264	-98.534267	-92.567588	1251.016026	-192.533471	-84.989452	1248.853224	-275.449177	9.969520	1154.577839	-38.704154	5.086848	1104.069756	-432.281060	142.387876	1076.819586	-19.903483	231.372131	1076.628981	-18.802007	307.301286	1035.635110	-20.268992	240.892598	1110.116795	-33.343308	423.481013	972.618624	-40.875130	431.584853	958.620970	-167.457473	350.054667	824.609680	-26.326855	329.480547	741.031120	-43.287148	264.211243	678.585403	-50.440121	354.716996	729.043507	-69.406833	196.334429	566.496760	-73.304733	224.483765	576.340914	-162.268187	127.003371	522.158585	-116.641371	437.556222	506.689241	-108.036700	316.131521	495.557561	-41.995198	344.710129	509.090505	-155.104900	74.860025	958.803767	-451.170615	131.865329	893.717380	-454.670788	164.844075	910.272210	-452.649761	150.664898	807.280462	-441.218665	224.493028	699.394687	-424.182292	228.516906	688.827700	-302.923620	147.114033	542.814275	-447.021671	140.560817	460.043123	-429.945415	88.862894	384.957623	-421.756263	169.939533	451.442832	-404.569654	38.178079	268.532321	-401.688873	73.888441	278.407583	-312.261318	-29.341275	223.907902	-352.962333	279.095083	195.117158	-357.012913	187.063938	199.773821	-314.409975	157.362494	179.435351	-428.383476	-215.060703	945.619046	-231.366521	-6.085781	83.864718	-435.108568	-11.541577	81.217595	-34.724541	
1504	7.5200	466.252830	1441.328322	-81.444693	445.272148	1456.774181	-403.932277	376.618284	1528.605655	-235.846726	420.620065	1361.498360	-241.429057	521.328745	1190.823361	47.497849	722.261706	986.727527	-18.448692	510.765182	1198.486361	-497.818283	720.340772	979.996040	-454.804576	-115.654130	1196.556871	-236.731227	59.024213	1231.889029	-416.539595	51.915431	1235.911578	-51.983185	82.745042	1158.943722	-378.242242	78.611044	1175.587127	-98.253765	-92.755351	1250.173120	-192.973127	-84.922155	1247.897064	-275.959766	9.625294	1154.234618	-38.788721	5.409535	1103.168229	-432.295138	142.303403	1076.915147	-19.682293	231.224829	1077.014029	-18.457934	307.319117	1036.130259	-19.782848	240.715898	1110.433556	-33.057839	423.986477	973.354592	-40.334040	432.411423	959.441449	-167.012866	350.658258	825.274223	-25.821778	330.051602	741.655095	-42.893144	264.782562	679.219425	-50.065227	355.306194	729.789918	-68.952574	196.868368	567.204631	-73.096530	225.008901	577.074567	-162.007636	126.900111	523.594193	-116.086263	437.746026	506.224983	-108.114555	316.323852	495.747284	-41.948056	344.884310	509.176161	-155.064173	75.023124	958.044888	-451.101416	132.047119	892.871219	-454.610375	165.065159	909.218841	-452.213261	150.847925	806.429486	-441.080223	224.600541	698.632115	-424.082303	228.410813	688.113699	-302.741696	147.000540	542.233656	-446.791844	140.407192	459.430366	-429.856462	88.644302	384.376771	-421.666828	169.773505	450.814351	-404.512026	37.903288	267.944830	-401.641576	73.491127	277.866228	-312.141764	-29.525837	223.023368	-352.810114	279.031333	195.406161	-357.035009	186.965183	199.686793	-314.324478	157.331642	179.251796	-428.379264	-215.127538	945.602915	-231.542801	-6.077306	83.847686	-435.125332	-11.538738	81.235358	-34.721145	
